<?xml version="1.0" encoding="UTF-8" standalone="no"?>
<!DOCTYPE svg PUBLIC "-//W3C//DTD SVG 1.1//EN"
 "http://www.w3.org/Graphics/SVG/1.1/DTD/svg11.dtd">
<!-- Generated by graphviz version 2.40.1 (20161225.0304)
 -->
<!-- Title: %3 Pages: 1 -->
<svg width="721pt" height="721pt"
 viewBox="0.00 0.00 721.00 721.00" xmlns="http://www.w3.org/2000/svg" xmlns:xlink="http://www.w3.org/1999/xlink">
<g id="graph0" class="graph" transform="scale(1 1) rotate(0) translate(4 717)">
<title>%3</title>
<polygon fill="#ffffff" stroke="transparent" points="-4,4 -4,-717 717,-717 717,4 -4,4"/>
<!-- AbstractFactory -->
<g id="node1" class="node">
<title>AbstractFactory</title>
<ellipse fill="#95b9c7" stroke="#000000" cx="174.664" cy="-143.4739" rx="43.3573" ry="18"/>
<text text-anchor="middle" x="174.664" y="-141.8459" font-family="Helvetica Neue" font-size="8.00" fill="#000000">Abstract Factory</text>
</g>
<!-- FactoryMethod -->
<g id="node3" class="node">
<title>FactoryMethod</title>
<ellipse fill="#95b9c7" stroke="#000000" cx="205.6219" cy="-68.1068" rx="41.8155" ry="18"/>
<text text-anchor="middle" x="205.6219" y="-66.4788" font-family="Helvetica Neue" font-size="8.00" fill="#000000">Factory Method</text>
</g>
<!-- AbstractFactory&#45;&gt;FactoryMethod -->
<g id="edge4" class="edge">
<title>AbstractFactory&#45;&gt;FactoryMethod</title>
<path fill="none" stroke="#000000" d="M182.0005,-125.613C186.3186,-115.1006 191.8185,-101.7111 196.4246,-90.4975"/>
<polygon fill="#000000" stroke="#000000" points="198.0568,-91.1296 198.3379,-85.8396 194.8193,-89.7997 198.0568,-91.1296"/>
<text text-anchor="middle" x="171.5216" y="-118.16" font-family="Helvetica Neue" font-size="8.00" fill="#0000ff">implement</text>
<text text-anchor="middle" x="171.5216" y="-108.616" font-family="Helvetica Neue" font-size="8.00" fill="#0000ff">using</text>
</g>
<!-- Prototype -->
<g id="node4" class="node">
<title>Prototype</title>
<ellipse fill="#95b9c7" stroke="#000000" cx="29.0504" cy="-217.3651" rx="29.3693" ry="18"/>
<text text-anchor="middle" x="29.0504" y="-215.737" font-family="Helvetica Neue" font-size="8.00" fill="#000000">Prototype</text>
</g>
<!-- AbstractFactory&#45;&gt;Prototype -->
<g id="edge2" class="edge">
<title>AbstractFactory&#45;&gt;Prototype</title>
<path fill="none" stroke="#000000" d="M146.9324,-157.5462C120.9868,-170.7122 82.4501,-190.2675 56.5725,-203.399"/>
<polygon fill="#000000" stroke="#000000" points="55.5607,-201.95 51.8938,-205.7732 57.1445,-205.0712 55.5607,-201.95"/>
<text text-anchor="middle" x="78.3456" y="-175.2351" font-family="Helvetica Neue" font-size="8.00" fill="#0000ff">configure</text>
<text text-anchor="middle" x="78.3456" y="-165.6912" font-family="Helvetica Neue" font-size="8.00" fill="#0000ff">factory</text>
<text text-anchor="middle" x="78.3456" y="-156.1472" font-family="Helvetica Neue" font-size="8.00" fill="#0000ff">dynamically</text>
</g>
<!-- Singleton -->
<g id="node5" class="node">
<title>Singleton</title>
<ellipse fill="#95b9c7" stroke="#000000" cx="337.1525" cy="-97.713" rx="28.3383" ry="18"/>
<text text-anchor="middle" x="337.1525" y="-96.085" font-family="Helvetica Neue" font-size="8.00" fill="#000000">Singleton</text>
</g>
<!-- AbstractFactory&#45;&gt;Singleton -->
<g id="edge3" class="edge">
<title>AbstractFactory&#45;&gt;Singleton</title>
<path fill="none" stroke="#000000" d="M210.7254,-133.3181C239.3315,-125.2619 278.8954,-114.1197 306.1059,-106.4565"/>
<polygon fill="#000000" stroke="#000000" points="306.6991,-108.1076 311.0375,-105.0677 305.7503,-104.7387 306.6991,-108.1076"/>
<text text-anchor="middle" x="245.8747" y="-131.8714" font-family="Helvetica Neue" font-size="8.00" fill="#0000ff">single</text>
<text text-anchor="middle" x="245.8747" y="-122.3274" font-family="Helvetica Neue" font-size="8.00" fill="#0000ff">instance</text>
</g>
<!-- Builder -->
<g id="node2" class="node">
<title>Builder</title>
<ellipse fill="#95b9c7" stroke="#000000" cx="617.1284" cy="-695.3671" rx="27" ry="18"/>
<text text-anchor="middle" x="617.1284" y="-693.7391" font-family="Helvetica Neue" font-size="8.00" fill="#000000">Builder</text>
</g>
<!-- Adapter -->
<g id="node6" class="node">
<title>Adapter</title>
<ellipse fill="#e5e4e2" stroke="#000000" cx="264.8731" cy="-562.3499" rx="27" ry="18"/>
<text text-anchor="middle" x="264.8731" y="-560.7219" font-family="Helvetica Neue" font-size="8.00" fill="#000000">Adapter</text>
</g>
<!-- Bridge -->
<g id="node7" class="node">
<title>Bridge</title>
<ellipse fill="#e5e4e2" stroke="#000000" cx="230.8731" cy="-256.3499" rx="27" ry="18"/>
<text text-anchor="middle" x="230.8731" y="-254.7219" font-family="Helvetica Neue" font-size="8.00" fill="#000000">Bridge</text>
</g>
<!-- Composite -->
<g id="node8" class="node">
<title>Composite</title>
<ellipse fill="#e5e4e2" stroke="#000000" cx="457.1777" cy="-501.5578" rx="31.623" ry="18"/>
<text text-anchor="middle" x="457.1777" y="-499.9298" font-family="Helvetica Neue" font-size="8.00" fill="#000000">Composite</text>
</g>
<!-- Composite&#45;&gt;Builder -->
<g id="edge17" class="edge">
<title>Composite&#45;&gt;Builder</title>
<path fill="none" stroke="#000000" d="M470.815,-518.0819C500.1176,-553.5873 568.991,-637.0399 600.6648,-675.4185"/>
<polygon fill="#000000" stroke="#000000" points="599.4429,-676.6873 603.9753,-679.4297 602.1423,-674.4595 599.4429,-676.6873"/>
<text text-anchor="middle" x="516.6513" y="-611.5359" font-family="Helvetica Neue" font-size="8.00" fill="#0000ff">creating</text>
<text text-anchor="middle" x="516.6513" y="-601.992" font-family="Helvetica Neue" font-size="8.00" fill="#0000ff">composites</text>
</g>
<!-- Decorator -->
<g id="node9" class="node">
<title>Decorator</title>
<ellipse fill="#e5e4e2" stroke="#000000" cx="380.3562" cy="-382.6153" rx="29.5369" ry="18"/>
<text text-anchor="middle" x="380.3562" y="-380.9873" font-family="Helvetica Neue" font-size="8.00" fill="#000000">Decorator</text>
</g>
<!-- Composite&#45;&gt;Decorator -->
<g id="edge18" class="edge">
<title>Composite&#45;&gt;Decorator</title>
<path fill="none" stroke="#000000" d="M446.1711,-484.5162C432.48,-463.3185 409.0968,-427.1142 394.2027,-404.0538"/>
<polygon fill="#000000" stroke="#000000" points="395.5253,-402.876 391.3424,-399.6253 392.5852,-404.7749 395.5253,-402.876"/>
<text text-anchor="middle" x="393.0178" y="-464.137" font-family="Helvetica Neue" font-size="8.00" fill="#0000ff">adding</text>
<text text-anchor="middle" x="393.0178" y="-454.593" font-family="Helvetica Neue" font-size="8.00" fill="#0000ff">responsibilites</text>
<text text-anchor="middle" x="393.0178" y="-445.0491" font-family="Helvetica Neue" font-size="8.00" fill="#0000ff">to objects</text>
</g>
<!-- Flyweight -->
<g id="node11" class="node">
<title>Flyweight</title>
<ellipse fill="#e5e4e2" stroke="#000000" cx="303.0757" cy="-465.7177" rx="28.8338" ry="18"/>
<text text-anchor="middle" x="303.0757" y="-464.0897" font-family="Helvetica Neue" font-size="8.00" fill="#000000">Flyweight</text>
</g>
<!-- Composite&#45;&gt;Flyweight -->
<g id="edge19" class="edge">
<title>Composite&#45;&gt;Flyweight</title>
<path fill="none" stroke="#000000" d="M427.8296,-494.7322C401.2758,-488.5565 362.2602,-479.4825 334.9507,-473.131"/>
<polygon fill="#000000" stroke="#000000" points="335.2597,-471.4062 329.9932,-471.978 334.4668,-474.8153 335.2597,-471.4062"/>
<text text-anchor="middle" x="358.1483" y="-496.0562" font-family="Helvetica Neue" font-size="8.00" fill="#0000ff">sharing</text>
<text text-anchor="middle" x="358.1483" y="-486.5123" font-family="Helvetica Neue" font-size="8.00" fill="#0000ff">composites</text>
</g>
<!-- Iterator -->
<g id="node16" class="node">
<title>Iterator</title>
<ellipse fill="#e9cfec" stroke="#000000" cx="565.1968" cy="-586.7554" rx="27" ry="18"/>
<text text-anchor="middle" x="565.1968" y="-585.1273" font-family="Helvetica Neue" font-size="8.00" fill="#000000">Iterator</text>
</g>
<!-- Composite&#45;&gt;Iterator -->
<g id="edge21" class="edge">
<title>Composite&#45;&gt;Iterator</title>
<path fill="none" stroke="#000000" d="M475.9932,-516.3981C494.8414,-531.2641 523.8181,-554.1189 543.5954,-569.7177"/>
<polygon fill="#000000" stroke="#000000" points="542.6594,-571.2083 547.669,-572.9307 544.8269,-568.4602 542.6594,-571.2083"/>
<text text-anchor="middle" x="489.6893" y="-557.4802" font-family="Helvetica Neue" font-size="8.00" fill="#0000ff">enumerating</text>
<text text-anchor="middle" x="489.6893" y="-547.9362" font-family="Helvetica Neue" font-size="8.00" fill="#0000ff">children</text>
</g>
<!-- Visitor -->
<g id="node23" class="node">
<title>Visitor</title>
<ellipse fill="#e9cfec" stroke="#000000" cx="435.0639" cy="-668.3181" rx="27" ry="18"/>
<text text-anchor="middle" x="435.0639" y="-666.6901" font-family="Helvetica Neue" font-size="8.00" fill="#000000">Visitor</text>
</g>
<!-- Composite&#45;&gt;Visitor -->
<g id="edge20" class="edge">
<title>Composite&#45;&gt;Visitor</title>
<path fill="none" stroke="#000000" d="M454.7691,-519.7215C450.7313,-550.1704 442.6027,-611.468 438.1513,-645.0363"/>
<polygon fill="#000000" stroke="#000000" points="436.3922,-644.9901 437.4696,-650.1768 439.8618,-645.4502 436.3922,-644.9901"/>
<text text-anchor="middle" x="427.1435" y="-597.7263" font-family="Helvetica Neue" font-size="8.00" fill="#0000ff">adding</text>
<text text-anchor="middle" x="427.1435" y="-588.1824" font-family="Helvetica Neue" font-size="8.00" fill="#0000ff">operations</text>
</g>
<!-- Strategy -->
<g id="node21" class="node">
<title>Strategy</title>
<ellipse fill="#e9cfec" stroke="#000000" cx="283.7471" cy="-343.1053" rx="27" ry="18"/>
<text text-anchor="middle" x="283.7471" y="-341.4773" font-family="Helvetica Neue" font-size="8.00" fill="#000000">Strategy</text>
</g>
<!-- Decorator&#45;&gt;Strategy -->
<g id="edge16" class="edge">
<title>Decorator&#45;&gt;Strategy</title>
<path fill="none" stroke="#000000" d="M355.7277,-372.5431C342.3841,-367.086 325.8382,-360.3192 311.9757,-354.6499"/>
<polygon fill="#000000" stroke="#000000" points="312.2911,-352.8882 307.0007,-352.6153 310.9662,-356.1278 312.2911,-352.8882"/>
<text text-anchor="middle" x="310.3798" y="-375.3519" font-family="Helvetica Neue" font-size="8.00" fill="#0000ff">changing</text>
<text text-anchor="middle" x="310.3798" y="-365.808" font-family="Helvetica Neue" font-size="8.00" fill="#0000ff">skin vs guts</text>
</g>
<!-- Facade -->
<g id="node10" class="node">
<title>Facade</title>
<ellipse fill="#e5e4e2" stroke="#000000" cx="466.7682" cy="-17.9588" rx="27" ry="18"/>
<text text-anchor="middle" x="466.7682" y="-16.3308" font-family="Helvetica Neue" font-size="8.00" fill="#000000">Facade</text>
</g>
<!-- Facade&#45;&gt;Singleton -->
<g id="edge1" class="edge">
<title>Facade&#45;&gt;Singleton</title>
<path fill="none" stroke="#000000" d="M446.7998,-30.2456C424.0704,-44.2313 386.9078,-67.0979 362.2409,-82.2758"/>
<polygon fill="#000000" stroke="#000000" points="361.1281,-80.9057 357.7868,-85.0165 362.9623,-83.8866 361.1281,-80.9057"/>
<text text-anchor="middle" x="375.439" y="-60.9339" font-family="Helvetica Neue" font-size="8.00" fill="#0000ff">single instance</text>
</g>
<!-- Proxy -->
<g id="node12" class="node">
<title>Proxy</title>
<ellipse fill="#e5e4e2" stroke="#000000" cx="400.8731" cy="-188.3499" rx="27" ry="18"/>
<text text-anchor="middle" x="400.8731" y="-186.7219" font-family="Helvetica Neue" font-size="8.00" fill="#000000">Proxy</text>
</g>
<!-- ChainOfResponsibility -->
<g id="node13" class="node">
<title>ChainOfResponsibility</title>
<ellipse fill="#e9cfec" stroke="#000000" cx="536.5475" cy="-351.065" rx="56.3208" ry="18"/>
<text text-anchor="middle" x="536.5475" y="-349.437" font-family="Helvetica Neue" font-size="8.00" fill="#000000">Chain of Responsibility</text>
</g>
<!-- ChainOfResponsibility&#45;&gt;Composite -->
<g id="edge14" class="edge">
<title>ChainOfResponsibility&#45;&gt;Composite</title>
<path fill="none" stroke="#000000" d="M527.131,-368.9195C512.5534,-396.5601 484.5599,-449.6384 468.7635,-479.59"/>
<polygon fill="#000000" stroke="#000000" points="467.1216,-478.952 466.3369,-484.191 470.2174,-480.5848 467.1216,-478.952"/>
<text text-anchor="middle" x="480.2564" y="-439.4358" font-family="Helvetica Neue" font-size="8.00" fill="#0000ff">defining</text>
<text text-anchor="middle" x="480.2564" y="-429.8918" font-family="Helvetica Neue" font-size="8.00" fill="#0000ff">the chain</text>
</g>
<!-- Command -->
<g id="node14" class="node">
<title>Command</title>
<ellipse fill="#e9cfec" stroke="#000000" cx="623.6453" cy="-452.4838" rx="30.7729" ry="18"/>
<text text-anchor="middle" x="623.6453" y="-450.8558" font-family="Helvetica Neue" font-size="8.00" fill="#000000">Command</text>
</g>
<!-- Command&#45;&gt;Composite -->
<g id="edge22" class="edge">
<title>Command&#45;&gt;Composite</title>
<path fill="none" stroke="#000000" d="M596.1566,-460.5874C567.0544,-469.1666 521.1252,-482.7063 490.1088,-491.8498"/>
<polygon fill="#000000" stroke="#000000" points="489.5648,-490.1857 485.2637,-493.2781 490.5545,-493.5428 489.5648,-490.1857"/>
<text text-anchor="middle" x="510.9443" y="-470.5262" font-family="Helvetica Neue" font-size="8.00" fill="#0000ff">composed using</text>
</g>
<!-- Memento -->
<g id="node18" class="node">
<title>Memento</title>
<ellipse fill="#e9cfec" stroke="#000000" cx="684.2441" cy="-533.1731" rx="28.6957" ry="18"/>
<text text-anchor="middle" x="684.2441" y="-531.5451" font-family="Helvetica Neue" font-size="8.00" fill="#000000">Memento</text>
</g>
<!-- Command&#45;&gt;Memento -->
<g id="edge23" class="edge">
<title>Command&#45;&gt;Memento</title>
<path fill="none" stroke="#000000" d="M636.2014,-469.2027C645.6895,-481.8363 658.7616,-499.2423 668.875,-512.7087"/>
<polygon fill="#000000" stroke="#000000" points="667.5095,-513.8046 671.9114,-516.7517 670.3081,-511.7027 667.5095,-513.8046"/>
<text text-anchor="middle" x="635.9854" y="-505.4746" font-family="Helvetica Neue" font-size="8.00" fill="#0000ff">avoiding</text>
<text text-anchor="middle" x="635.9854" y="-495.9306" font-family="Helvetica Neue" font-size="8.00" fill="#0000ff">hysteresis</text>
</g>
<!-- Interpreter -->
<g id="node15" class="node">
<title>Interpreter</title>
<ellipse fill="#e9cfec" stroke="#000000" cx="367.0996" cy="-612.8507" rx="30.2415" ry="18"/>
<text text-anchor="middle" x="367.0996" y="-611.2227" font-family="Helvetica Neue" font-size="8.00" fill="#000000">Interpreter</text>
</g>
<!-- Interpreter&#45;&gt;Composite -->
<g id="edge12" class="edge">
<title>Interpreter&#45;&gt;Composite</title>
<path fill="none" stroke="#000000" d="M380.391,-596.4291C396.3573,-576.7024 423.1539,-543.5948 440.4956,-522.1688"/>
<polygon fill="#000000" stroke="#000000" points="442.0465,-523.0343 443.8319,-518.0468 439.3259,-520.8324 442.0465,-523.0343"/>
<text text-anchor="middle" x="396.1405" y="-569.7911" font-family="Helvetica Neue" font-size="8.00" fill="#0000ff">defining</text>
<text text-anchor="middle" x="396.1405" y="-560.2471" font-family="Helvetica Neue" font-size="8.00" fill="#0000ff">grammar</text>
</g>
<!-- Interpreter&#45;&gt;Flyweight -->
<g id="edge11" class="edge">
<title>Interpreter&#45;&gt;Flyweight</title>
<path fill="none" stroke="#000000" d="M359.5038,-595.3949C347.8557,-568.6264 325.5891,-517.4556 312.7849,-488.0305"/>
<polygon fill="#000000" stroke="#000000" points="314.2614,-487.0374 310.6616,-483.1509 311.052,-488.4339 314.2614,-487.0374"/>
<text text-anchor="middle" x="320.1943" y="-561.6875" font-family="Helvetica Neue" font-size="8.00" fill="#0000ff">sharing</text>
<text text-anchor="middle" x="320.1943" y="-552.1436" font-family="Helvetica Neue" font-size="8.00" fill="#0000ff">terminal</text>
<text text-anchor="middle" x="320.1943" y="-542.5996" font-family="Helvetica Neue" font-size="8.00" fill="#0000ff">symbols</text>
</g>
<!-- Interpreter&#45;&gt;Visitor -->
<g id="edge13" class="edge">
<title>Interpreter&#45;&gt;Visitor</title>
<path fill="none" stroke="#000000" d="M384.9565,-627.4241C393.6089,-634.4856 404.0771,-643.029 413.203,-650.4769"/>
<polygon fill="#000000" stroke="#000000" points="412.5812,-652.2282 417.5614,-654.0339 414.7942,-649.5166 412.5812,-652.2282"/>
<text text-anchor="middle" x="382.2095" y="-653.3471" font-family="Helvetica Neue" font-size="8.00" fill="#0000ff">adding</text>
<text text-anchor="middle" x="382.2095" y="-643.8032" font-family="Helvetica Neue" font-size="8.00" fill="#0000ff">operations</text>
</g>
<!-- Iterator&#45;&gt;Memento -->
<g id="edge24" class="edge">
<title>Iterator&#45;&gt;Memento</title>
<path fill="none" stroke="#000000" d="M587.5887,-576.677C607.0002,-567.94 635.1839,-555.2547 656.1135,-545.8345"/>
<polygon fill="#000000" stroke="#000000" points="656.8897,-547.4043 660.7308,-543.7562 655.4531,-544.2127 656.8897,-547.4043"/>
<text text-anchor="middle" x="602.6336" y="-553.8356" font-family="Helvetica Neue" font-size="8.00" fill="#0000ff">saving state</text>
<text text-anchor="middle" x="602.6336" y="-544.2916" font-family="Helvetica Neue" font-size="8.00" fill="#0000ff">on iteration</text>
</g>
<!-- Mediator -->
<g id="node17" class="node">
<title>Mediator</title>
<ellipse fill="#e9cfec" stroke="#000000" cx="401.7388" cy="-274.0897" rx="27.3046" ry="18"/>
<text text-anchor="middle" x="401.7388" y="-272.4617" font-family="Helvetica Neue" font-size="8.00" fill="#000000">Mediator</text>
</g>
<!-- Observer -->
<g id="node19" class="node">
<title>Observer</title>
<ellipse fill="#e9cfec" stroke="#000000" cx="523.9125" cy="-255.8363" rx="27.8215" ry="18"/>
<text text-anchor="middle" x="523.9125" y="-254.2082" font-family="Helvetica Neue" font-size="8.00" fill="#000000">Observer</text>
</g>
<!-- Observer&#45;&gt;Mediator -->
<g id="edge10" class="edge">
<title>Observer&#45;&gt;Mediator</title>
<path fill="none" stroke="#000000" d="M496.4943,-259.9327C477.9738,-262.6998 453.4487,-266.3639 433.9897,-269.2712"/>
<polygon fill="#000000" stroke="#000000" points="433.3313,-267.6001 428.6448,-270.0698 433.8486,-271.0617 433.3313,-267.6001"/>
<text text-anchor="middle" x="462.5324" y="-258.6068" font-family="Helvetica Neue" font-size="8.00" fill="#0000ff">complex</text>
<text text-anchor="middle" x="462.5324" y="-249.0628" font-family="Helvetica Neue" font-size="8.00" fill="#0000ff">dependency</text>
<text text-anchor="middle" x="462.5324" y="-239.5189" font-family="Helvetica Neue" font-size="8.00" fill="#0000ff">management</text>
</g>
<!-- State -->
<g id="node20" class="node">
<title>State</title>
<ellipse fill="#e9cfec" stroke="#000000" cx="129.9159" cy="-524.1554" rx="27" ry="18"/>
<text text-anchor="middle" x="129.9159" y="-522.5274" font-family="Helvetica Neue" font-size="8.00" fill="#000000">State</text>
</g>
<!-- State&#45;&gt;Flyweight -->
<g id="edge7" class="edge">
<title>State&#45;&gt;Flyweight</title>
<path fill="none" stroke="#000000" d="M154.3582,-515.9067C185.4577,-505.4113 239.1647,-487.2863 272.817,-475.9294"/>
<polygon fill="#000000" stroke="#000000" points="273.4536,-477.5616 277.6315,-474.3046 272.3344,-474.2453 273.4536,-477.5616"/>
<text text-anchor="middle" x="191.123" y="-498.1928" font-family="Helvetica Neue" font-size="8.00" fill="#0000ff">sharing states</text>
</g>
<!-- Strategy&#45;&gt;Decorator -->
<g id="edge8" class="edge">
<title>Strategy&#45;&gt;Decorator</title>
<path fill="none" stroke="#000000" d="M307.1335,-352.6696C320.3788,-358.0865 337.0663,-364.9111 351.1641,-370.6767"/>
<polygon fill="#000000" stroke="#000000" points="350.5467,-372.3149 355.8371,-372.5878 351.8717,-369.0753 350.5467,-372.3149"/>
</g>
<!-- Strategy&#45;&gt;Flyweight -->
<g id="edge9" class="edge">
<title>Strategy&#45;&gt;Flyweight</title>
<path fill="none" stroke="#000000" d="M286.5991,-361.1972C289.9966,-382.7491 295.6793,-418.7982 299.4027,-442.4176"/>
<polygon fill="#000000" stroke="#000000" points="297.7047,-442.8851 300.212,-447.5516 301.162,-442.3401 297.7047,-442.8851"/>
<text text-anchor="middle" x="275.9408" y="-417.1587" font-family="Helvetica Neue" font-size="8.00" fill="#0000ff">sharing</text>
<text text-anchor="middle" x="275.9408" y="-407.6148" font-family="Helvetica Neue" font-size="8.00" fill="#0000ff">strategies</text>
</g>
<!-- TemplateMethod -->
<g id="node22" class="node">
<title>TemplateMethod</title>
<ellipse fill="#e9cfec" stroke="#000000" cx="273.7814" cy="-169.8799" rx="44.6097" ry="18"/>
<text text-anchor="middle" x="273.7814" y="-168.2519" font-family="Helvetica Neue" font-size="8.00" fill="#000000">Template Method</text>
</g>
<!-- TemplateMethod&#45;&gt;FactoryMethod -->
<g id="edge5" class="edge">
<title>TemplateMethod&#45;&gt;FactoryMethod</title>
<path fill="none" stroke="#000000" d="M261.9089,-152.1524C250.376,-134.932 232.8334,-108.7381 220.4019,-90.1759"/>
<polygon fill="#000000" stroke="#000000" points="221.5946,-88.8118 217.3583,-85.6312 218.6866,-90.7594 221.5946,-88.8118"/>
<text text-anchor="middle" x="221.165" y="-112.6821" font-family="Helvetica Neue" font-size="8.00" fill="#0000ff">often uses</text>
</g>
<!-- TemplateMethod&#45;&gt;Strategy -->
<g id="edge6" class="edge">
<title>TemplateMethod&#45;&gt;Strategy</title>
<path fill="none" stroke="#000000" d="M274.829,-188.0906C276.6459,-219.6705 280.379,-284.5593 282.391,-319.5322"/>
<polygon fill="#000000" stroke="#000000" points="280.6642,-319.9874 282.6986,-324.8786 284.1584,-319.7863 280.6642,-319.9874"/>
<text text-anchor="middle" x="298.6246" y="-278.7997" font-family="Helvetica Neue" font-size="8.00" fill="#0000ff">defining</text>
<text text-anchor="middle" x="298.6246" y="-269.2558" font-family="Helvetica Neue" font-size="8.00" fill="#0000ff">algorithm&#39;s</text>
<text text-anchor="middle" x="298.6246" y="-259.7118" font-family="Helvetica Neue" font-size="8.00" fill="#0000ff">steps</text>
</g>
<!-- Visitor&#45;&gt;Iterator -->
<g id="edge15" class="edge">
<title>Visitor&#45;&gt;Iterator</title>
<path fill="none" stroke="#000000" d="M454.8283,-655.9305C477.8543,-641.4986 515.9067,-617.6487 540.765,-602.0684"/>
<polygon fill="#000000" stroke="#000000" points="541.9392,-603.3978 545.2464,-599.2596 540.0804,-600.4322 541.9392,-603.3978"/>
<text text-anchor="middle" x="482.7613" y="-640.2955" font-family="Helvetica Neue" font-size="8.00" fill="#0000ff">defining</text>
<text text-anchor="middle" x="482.7613" y="-630.7515" font-family="Helvetica Neue" font-size="8.00" fill="#0000ff">traversals</text>
</g>
</g>
</svg>
